<svg xmlns="http://www.w3.org/2000/svg" viewBox="0 0 1100 559" width="1100" height="559" font-family="Helvetica,Arial,sans-serif">
<defs><marker id="ah" markerWidth="10" markerHeight="8" refX="9" refY="4" orient="auto"><path d="M0,0 L10,4 L0,8 z" fill="#444444"/></marker></defs>
<rect width="1100" height="559" fill="#ffffff"/>
<text x="540.0" y="28.6" font-size="16" text-anchor="middle" xml:space="preserve" fill="#1a1a1a" font-weight="bold">SPEAR — overall architecture</text>
<rect x="30" y="55" width="300" height="200" rx="8" ry="8" fill="none" stroke="#444444" stroke-width="1.4"/>
<text x="180.0" y="73.0" font-size="12" text-anchor="middle" xml:space="preserve" fill="#1a1a1a" font-weight="bold">Entry points</text>
<rect x="55" y="95" width="250" height="44" rx="0" ry="0" fill="#dae8fc" stroke="#6c8ebf" stroke-width="1.4"/>
<text x="180.0" y="120.5" font-size="10" text-anchor="middle" xml:space="preserve" fill="#1a1a1a">spear-chat        (interactive REPL)</text>
<rect x="55" y="148" width="250" height="44" rx="0" ry="0" fill="#dae8fc" stroke="#6c8ebf" stroke-width="1.4"/>
<text x="180.0" y="173.5" font-size="10" text-anchor="middle" xml:space="preserve" fill="#1a1a1a">spear-server   (llama-server unit)</text>
<rect x="55" y="201" width="250" height="40" rx="0" ry="0" fill="#dae8fc" stroke="#6c8ebf" stroke-width="1.4"/>
<text x="180.0" y="224.5" font-size="10" text-anchor="middle" xml:space="preserve" fill="#1a1a1a">spear-model   (model / adapter)</text>
<rect x="30" y="285" width="300" height="250" rx="8" ry="8" fill="none" stroke="#444444" stroke-width="1.4"/>
<text x="180.0" y="303.0" font-size="12" text-anchor="middle" xml:space="preserve" fill="#1a1a1a" font-weight="bold">Persistent state</text>
<rect x="55" y="325" width="250" height="48" rx="0" ry="0" fill="#e1d5e7" stroke="#9673a6" stroke-width="1.4"/>
<text x="180.0" y="345.9" font-size="10" text-anchor="middle" xml:space="preserve" fill="#1a1a1a">chromadb/</text>
<text x="180.0" y="359.1" font-size="10" text-anchor="middle" xml:space="preserve" fill="#1a1a1a">vector store (RAG corpus)</text>
<rect x="55" y="383" width="250" height="44" rx="0" ry="0" fill="#e1d5e7" stroke="#9673a6" stroke-width="1.4"/>
<text x="180.0" y="401.9" font-size="10" text-anchor="middle" xml:space="preserve" fill="#1a1a1a">history*.json</text>
<text x="180.0" y="415.1" font-size="10" text-anchor="middle" xml:space="preserve" fill="#1a1a1a">conversation transcripts</text>
<rect x="55" y="437" width="250" height="44" rx="0" ry="0" fill="#e1d5e7" stroke="#9673a6" stroke-width="1.4"/>
<text x="180.0" y="455.9" font-size="10" text-anchor="middle" xml:space="preserve" fill="#1a1a1a">audit/tool-actions.jsonl</text>
<text x="180.0" y="469.1" font-size="10" text-anchor="middle" xml:space="preserve" fill="#1a1a1a">metadata-only audit trail</text>
<rect x="365" y="55" width="340" height="480" rx="8" ry="8" fill="none" stroke="#444444" stroke-width="1.4"/>
<text x="535.0" y="73.0" font-size="12" text-anchor="middle" xml:space="preserve" fill="#1a1a1a" font-weight="bold">SPEAR core  (Python)</text>
<rect x="390" y="95" width="290" height="66" rx="0" ry="0" fill="#d5e8d4" stroke="#82b366" stroke-width="1.4"/>
<text x="535.0" y="118.3" font-size="10" text-anchor="middle" xml:space="preserve" fill="#1a1a1a">rag_chat.py</text>
<text x="535.0" y="131.5" font-size="10" text-anchor="middle" xml:space="preserve" fill="#1a1a1a">REPL · prompt assembly · retrieval</text>
<text x="535.0" y="144.7" font-size="10" text-anchor="middle" xml:space="preserve" fill="#1a1a1a">tool dispatch · UI</text>
<rect x="390" y="175" width="290" height="60" rx="0" ry="0" fill="#d5e8d4" stroke="#82b366" stroke-width="1.4"/>
<text x="535.0" y="195.3" font-size="10" text-anchor="middle" xml:space="preserve" fill="#1a1a1a">model_backend.py</text>
<text x="535.0" y="208.5" font-size="10" text-anchor="middle" xml:space="preserve" fill="#1a1a1a">provider-neutral turns</text>
<text x="535.0" y="221.7" font-size="10" text-anchor="middle" xml:space="preserve" fill="#1a1a1a">stop_reason contract</text>
<rect x="390" y="250" width="290" height="66" rx="0" ry="0" fill="#d5e8d4" stroke="#82b366" stroke-width="1.4"/>
<text x="535.0" y="273.3" font-size="10" text-anchor="middle" xml:space="preserve" fill="#1a1a1a">tool_runtime.py</text>
<text x="535.0" y="286.5" font-size="10" text-anchor="middle" xml:space="preserve" fill="#1a1a1a">policy · workspace · sandbox</text>
<text x="535.0" y="299.7" font-size="10" text-anchor="middle" xml:space="preserve" fill="#1a1a1a">resource control · audit</text>
<rect x="390" y="332" width="290" height="48" rx="0" ry="0" fill="#d5e8d4" stroke="#82b366" stroke-width="1.4"/>
<text x="535.0" y="352.9" font-size="10" text-anchor="middle" xml:space="preserve" fill="#1a1a1a">index_corpus.py / index_dir.py</text>
<text x="535.0" y="366.1" font-size="10" text-anchor="middle" xml:space="preserve" fill="#1a1a1a">corpus ingestion</text>
<rect x="390" y="392" width="290" height="44" rx="0" ry="0" fill="#f5f5f5" stroke="#999999" stroke-width="1.4"/>
<text x="535.0" y="417.5" font-size="10" text-anchor="middle" xml:space="preserve" fill="#1a1a1a">rules.d/ · skills/ · system-prompt.md</text>
<rect x="390" y="448" width="290" height="44" rx="0" ry="0" fill="#f5f5f5" stroke="#999999" stroke-width="1.4"/>
<text x="535.0" y="466.9" font-size="10" text-anchor="middle" xml:space="preserve" fill="#1a1a1a">projects.json</text>
<text x="535.0" y="480.1" font-size="10" text-anchor="middle" xml:space="preserve" fill="#1a1a1a">named workspaces</text>
<rect x="740" y="55" width="330" height="230" rx="8" ry="8" fill="none" stroke="#444444" stroke-width="1.4"/>
<text x="905.0" y="73.0" font-size="12" text-anchor="middle" xml:space="preserve" fill="#1a1a1a" font-weight="bold">Model serving</text>
<rect x="765" y="95" width="280" height="78" rx="0" ry="0" fill="#ffe6cc" stroke="#d79b00" stroke-width="1.4"/>
<text x="905.0" y="124.3" font-size="10" text-anchor="middle" xml:space="preserve" fill="#1a1a1a">llama-server  (llama.cpp-next)</text>
<text x="905.0" y="137.5" font-size="10" text-anchor="middle" xml:space="preserve" fill="#1a1a1a">127.0.0.1:8080  ·  OpenAI-compatible</text>
<text x="905.0" y="150.7" font-size="10" text-anchor="middle" xml:space="preserve" fill="#1a1a1a">spear-llm.service</text>
<rect x="765" y="185" width="280" height="40" rx="0" ry="0" fill="#ffe6cc" stroke="#d79b00" stroke-width="1.4"/>
<text x="905.0" y="208.5" font-size="10" text-anchor="middle" xml:space="preserve" fill="#1a1a1a">models/gguf/*.gguf</text>
<rect x="765" y="235" width="280" height="38" rx="0" ry="0" fill="#ffe6cc" stroke="#d79b00" stroke-width="1.4"/>
<text x="905.0" y="257.5" font-size="10" text-anchor="middle" xml:space="preserve" fill="#1a1a1a">Anthropic API  (optional backend)</text>
<rect x="740" y="310" width="330" height="225" rx="8" ry="8" fill="none" stroke="#444444" stroke-width="1.4"/>
<text x="905.0" y="328.0" font-size="12" text-anchor="middle" xml:space="preserve" fill="#1a1a1a" font-weight="bold">Tool execution</text>
<rect x="765" y="350" width="280" height="40" rx="0" ry="0" fill="#fff2cc" stroke="#d6b656" stroke-width="1.4"/>
<text x="905.0" y="373.5" font-size="10" text-anchor="middle" xml:space="preserve" fill="#1a1a1a">systemd transient scope</text>
<rect x="765" y="398" width="280" height="40" rx="0" ry="0" fill="#fff2cc" stroke="#d6b656" stroke-width="1.4"/>
<text x="905.0" y="421.5" font-size="10" text-anchor="middle" xml:space="preserve" fill="#1a1a1a">bubblewrap sandbox</text>
<rect x="765" y="446" width="280" height="40" rx="0" ry="0" fill="#f8cecc" stroke="#b85450" stroke-width="1.4"/>
<text x="905.0" y="469.5" font-size="10" text-anchor="middle" xml:space="preserve" fill="#1a1a1a">COMMAND  (untrusted)</text>
<path d="M305.0,117.0 L347.5,117.0 L347.5,128.0 L390.0,128.0" fill="none" stroke="#444444" stroke-width="1.4" marker-end="url(#ah)"/>
<path d="M535.0,161.0 L535.0,168.0 L535.0,168.0 L535.0,175.0" fill="none" stroke="#444444" stroke-width="1.4" marker-end="url(#ah)"/>
<path d="M680.0,205.0 L722.5,205.0 L722.5,134.0 L765.0,134.0" fill="none" stroke="#444444" stroke-width="1.4" marker-end="url(#ah)"/>
<rect x="706.1" y="156.5" width="32.8" height="14" fill="#ffffff" fill-opacity="0.9" stroke="none"/>
<text x="722.5" y="166.5" font-size="10" text-anchor="middle" fill="#444444">HTTP</text>
<path d="M680.0,205.0 L722.5,205.0 L722.5,254.0 L765.0,254.0" fill="none" stroke="#444444" stroke-width="1.4" stroke-dasharray="6 4" marker-end="url(#ah)"/>
<path d="M905.0,173.0 L905.0,179.0 L905.0,179.0 L905.0,185.0" fill="none" stroke="#444444" stroke-width="1.4" stroke-dasharray="6 4" marker-end="url(#ah)"/>
<path d="M680.0,283.0 L722.5,283.0 L722.5,370.0 L765.0,370.0" fill="none" stroke="#444444" stroke-width="1.4" marker-end="url(#ah)"/>
<rect x="690.6" y="313.5" width="63.8" height="14" fill="#ffffff" fill-opacity="0.9" stroke="none"/>
<text x="722.5" y="323.5" font-size="10" text-anchor="middle" fill="#444444">tool call</text>
<path d="M905.0,390.0 L905.0,394.0 L905.0,394.0 L905.0,398.0" fill="none" stroke="#444444" stroke-width="1.4" marker-end="url(#ah)"/>
<path d="M905.0,438.0 L905.0,442.0 L905.0,442.0 L905.0,446.0" fill="none" stroke="#444444" stroke-width="1.4" marker-end="url(#ah)"/>
<path d="M390.0,128.0 L347.5,128.0 L347.5,349.0 L305.0,349.0" fill="none" stroke="#444444" stroke-width="1.4" stroke-dasharray="6 4" marker-end="url(#ah)"/>
<rect x="315.6" y="225.5" width="63.8" height="14" fill="#ffffff" fill-opacity="0.9" stroke="none"/>
<text x="347.5" y="235.5" font-size="10" text-anchor="middle" fill="#444444">retrieval</text>
<path d="M390.0,283.0 L347.5,283.0 L347.5,459.0 L305.0,459.0" fill="none" stroke="#444444" stroke-width="1.4" stroke-dasharray="6 4" marker-end="url(#ah)"/>
<path d="M390.0,356.0 L347.5,356.0 L347.5,349.0 L305.0,349.0" fill="none" stroke="#444444" stroke-width="1.4" stroke-dasharray="6 4" marker-end="url(#ah)"/>
<path d="M305.0,170.0 L535.0,170.0 L535.0,134.0 L765.0,134.0" fill="none" stroke="#444444" stroke-width="1.4" marker-end="url(#ah)"/>
</svg>